<?xml version="1.0" encoding="UTF-8"?>
<svg id="Ebene_1" data-name="Ebene 1" xmlns="http://www.w3.org/2000/svg" xmlns:xlink="http://www.w3.org/1999/xlink" viewBox="0 0 104.16 119.32">
  <defs>
    <style>
      .cls-1 {
        clip-path: url(#clippath);
      }

      .cls-2 {
        fill: none;
      }

      .cls-2, .cls-3, .cls-4 {
        stroke-width: 0px;
      }

      .cls-3 {
        fill: #172554;
      }

      .cls-4 {
        fill: #fbbe24;
      }
    </style>
    <clipPath id="clippath">
      <rect class="cls-2" y="-.19" width="104" height="120"/>
    </clipPath>
  </defs>
  <g>
    <path class="cls-4" d="m51.73,60.91L3.28,88.81l48.45,27.99,48.45-27.99s-48.45-27.9-48.45-27.9Z"/>
    <g class="cls-1">
      <path class="cls-3" d="m102.9,29.47L52.27.22c-.34-.19-.75-.19-1.09,0L.54,29.46C.2,29.65,0,30.02,0,30.4v58.41c0,.39.2.75.54.94l50.64,29.24c.18.1.36.15.54.15s.38-.05.54-.15l50.64-29.24c.34-.19.54-.56.54-.94V30.41c.02-.39-.19-.75-.53-.94h0Zm-1.64,57.46l-48.45-27.9V3.06l48.45,27.98v55.89Zm-49.54,29.88L3.28,88.83l48.44-27.91,48.44,27.91s-48.44,27.98-48.44,27.98Z"/>
    </g>
  </g>
  <g>

  </g>
</svg>